<svg width="24" height="21" viewBox="0 0 24 21" fill="none" xmlns="http://www.w3.org/2000/svg">
<path d="M17 18.6299H5C4.20435 18.6299 3.44129 18.3138 2.87868 17.7512C2.31607 17.1886 2 16.4255 2 15.6299V7.6299C2 7.3647 1.89464 7.1103 1.70711 6.92278C1.51957 6.73524 1.26522 6.62988 1 6.62988C0.734784 6.62988 0.48043 6.73524 0.292893 6.92278C0.105357 7.1103 0 7.3647 0 7.6299V15.6299C0 16.956 0.526784 18.2277 1.46447 19.1654C2.40215 20.1031 3.67392 20.6299 5 20.6299H17C17.2652 20.6299 17.5196 20.5245 17.7071 20.337C17.8946 20.1495 18 19.8951 18 19.6299C18 19.3647 17.8946 19.1103 17.7071 18.9228C17.5196 18.7352 17.2652 18.6299 17 18.6299ZM21 0.629883H7C6.20435 0.629883 5.44129 0.945953 4.87868 1.50856C4.31607 2.07117 4 2.83423 4 3.62988V13.6299C4 14.4255 4.31607 15.1886 4.87868 15.7512C5.44129 16.3138 6.20435 16.6299 7 16.6299H21C21.7956 16.6299 22.5587 16.3138 23.1213 15.7512C23.6839 15.1886 24 14.4255 24 13.6299V3.62988C24 2.83423 23.6839 2.07117 23.1213 1.50856C22.5587 0.945953 21.7956 0.629883 21 0.629883ZM20.59 2.62988L14.71 8.5099C14.617 8.6036 14.5064 8.678 14.3846 8.7288C14.2627 8.7795 14.132 8.8057 14 8.8057C13.868 8.8057 13.7373 8.7795 13.6154 8.7288C13.4936 8.678 13.383 8.6036 13.29 8.5099L7.41 2.62988H20.59ZM22 13.6299C22 13.8951 21.8946 14.1495 21.7071 14.337C21.5196 14.5245 21.2652 14.6299 21 14.6299H7C6.73478 14.6299 6.48043 14.5245 6.29289 14.337C6.10536 14.1495 6 13.8951 6 13.6299V3.99988L11.88 9.8799C12.4425 10.4417 13.205 10.7572 14 10.7572C14.795 10.7572 15.5575 10.4417 16.12 9.8799L22 3.99988V13.6299Z" fill="black"/>
</svg>
